# Alias OBJ Model File
# Exported from SketchUp, (c) 2000-2012 Trimble Navigation Limited
# File units = meters

mtllib test5.mtl

g Chiado

usemtl FrontColor
v -5.8 2.1 -0.6
vt 23.622 82.6772
vn 1 0 -0
v -5.8 0.1 -0.6
vt 23.622 3.93701
v -5.8 0.1 -1.6
vt 62.9921 3.93701
v -5.8 2.1 -1.6
vt 62.9921 82.6772
f 1/1/1 2/2/1 3/3/1 4/4/1 

v -2.2 0.1 3.8
vt -86.6142 -149.606
vn 0 1 -0
v -2.2 0.1 -1.8
vt -86.6142 70.8661
v -5.8 0.1 -1.8
vt -228.346 70.8661
vt -228.346 62.9921
vt -228.346 23.622
v -5.8 0.1 3.8
vt -228.346 -149.606
f 5/5/2 6/6/2 7/7/2 3/8/2 2/9/2 8/10/2 

g Mouraria

v -3.4 2.1 -3.8
vt -133.858 82.6772
vn 0 0 1
v -3.4 0.1 -3.8
vt -133.858 3.93701
v -2.4 0.1 -3.8
vt -94.4882 3.93701
v -2.4 2.1 -3.8
vt -94.4882 82.6772
f 9/11/3 10/12/3 11/13/3 12/14/3 

v -5.8 0.1 -3.8
vt -228.346 149.606
v -5.8 0.1 -2.2
vt -228.346 86.6142
v -2.2 0.1 -2.2
vt -86.6142 86.6142
v -2.2 0.1 -3.8
vt -86.6142 149.606
vt -94.4882 149.606
vt -133.858 149.606
f 13/15/2 14/16/2 15/17/2 16/18/2 11/19/2 10/20/2 

g Alfama

v 1.5 2.1 -3.8
vt 59.0551 82.6772
v 1.5 0.1 -3.8
vt 59.0551 3.93701
v 2.5 0.1 -3.8
vt 98.4252 3.93701
v 2.5 2.1 -3.8
vt 98.4252 82.6772
f 17/21/3 18/22/3 19/23/3 20/24/3 

vt 98.4252 149.606
vn -9.68063e-20 1 -2.96839e-19
vt 59.0551 149.606
v -1.8 0.1 -3.8
vt -70.8661 149.606
v -1.8 0.1 3.8
vt -70.8661 -149.606
v 5.8 0.1 3.8
vt 228.346 -149.606
v 5.8 0.1 -3.8
vt 228.346 149.606
f 19/25/4 18/26/4 21/27/4 22/28/4 23/29/4 24/30/4 

g Bairro Alto

v -0.6 3.2 -3.8
vt -23.622 125.984
v -0.6 5.2 -3.8
vt -23.622 204.724
v -1.6 5.2 -3.8
vt -62.9921 204.724
v -1.6 3.2 -3.8
vt -62.9921 125.984
f 25/31/3 26/32/3 27/33/3 28/34/3 

v -1.8 3.2 -3.8
v -1.8 3.2 3.8
v 1.8 3.2 3.8
vt 70.8661 -149.606
v 1.8 3.2 -3.8
vt 70.8661 149.606
vt -23.622 149.606
vt -62.9921 149.606
f 29/27/2 30/28/2 31/35/2 32/36/2 25/37/2 28/38/2 

g Graça

v 3.4 3.2 -3.8
vt 133.858 125.984
v 3.4 5.2 -3.8
vt 133.858 204.724
v 2.4 5.2 -3.8
vt 94.4882 204.724
v 2.4 3.2 -3.8
vt 94.4882 125.984
f 33/39/3 34/40/3 35/41/3 36/42/3 

v 2.2 3.2 -3.8
vt 86.6142 149.606
v 2.2 3.2 3.8
vt 86.6142 -149.606
v 5.8 3.2 3.8
v 5.8 3.2 -3.8
vt 133.858 149.606
vt 94.4882 149.606
f 37/43/2 38/44/2 39/29/2 40/30/2 33/45/2 36/46/2 

