# Alias OBJ Model File
# Exported from SketchUp, (c) 2000-2012 Trimble Navigation Limited
# File units = meters

mtllib test6.mtl

g Bairro Alto

usemtl FrontColor
v 5.8 0.1 -3.8
vt 228.346 149.606
vn -9.94319e-20 1 -1.12318e-24
v 2.5 0.1 -3.8
vt 98.4252 149.606
v 2.5 0.1 -3.7
vt 98.4252 145.669
v 5.69966 0.1 -3.7
vt 224.396 145.669
v 5.69966 0.1 3.7
vt 224.396 -145.669
v -1.70034 0.1 3.7
vt -66.9425 -145.669
v -1.70034 0.1 -3.7
vt -66.9425 145.669
v 1.5 0.1 -3.7
vt 59.0551 145.669
v 1.5 0.1 -3.8
vt 59.0551 149.606
v -1.8 0.1 -3.8
vt -70.8661 149.606
v -1.8 0.1 3.8
vt -70.8661 -149.606
v 5.8 0.1 3.8
vt 228.346 -149.606
f 1/1/1 2/2/1 3/3/1 4/4/1 5/5/1 6/6/1 7/7/1 8/8/1 9/9/1 10/10/1 11/11/1 12/12/1 

vt -145.669 3.93701
vn -1 0 -0
v 2.5 2.1 -3.7
vt -145.669 82.6772
v 2.5 2.1 -3.8
vt -149.606 82.6772
vt -149.606 3.93701
f 3/13/2 13/14/2 14/15/2 2/16/2 

vt -98.4252 145.669
vn 0 -1 -0
v 1.5 2.1 -3.7
vt -59.0551 145.669
v 1.5 2.1 -3.8
vt -59.0551 149.606
vt -98.4252 149.606
f 13/17/3 15/18/3 16/19/3 14/20/3 

vt 145.669 82.6772
vn 1 0 -0
vt 145.669 3.93701
vt 149.606 3.93701
vt 149.606 82.6772
f 15/21/4 8/22/4 9/23/4 16/24/4 

g Graça

v 1.7 3.2 -3.7
vt 66.9291 145.669
vn 0 1 -0
v 1.7 3.2 3.7
vt 66.9291 -145.669
v -1.7 3.2 3.7
vt -66.9291 -145.669
v -1.7 3.2 -3.7
vt -66.9291 145.669
v -1.6 3.2 -3.7
vt -62.9921 145.669
v -1.6 3.2 -3.8
vt -62.9921 149.606
v -1.8 3.2 -3.8
v -1.8 3.2 3.8
v 1.8 3.2 3.8
vt 70.8661 -149.606
v 1.8 3.2 -3.8
vt 70.8661 149.606
v -0.6 3.2 -3.8
vt -23.622 149.606
v -0.6 3.2 -3.7
vt -23.622 145.669
f 17/25/5 18/26/5 19/27/5 20/28/5 21/29/5 22/30/5 23/10/5 24/11/5 25/31/5 26/32/5 27/33/5 28/34/5 

v -1.6 5.2 -3.7
vt 145.669 204.724
vt 145.669 125.984
vt 149.606 125.984
v -1.6 5.2 -3.8
vt 149.606 204.724
f 29/35/4 21/36/4 22/37/4 30/38/4 

v -0.6 5.2 -3.7
vt 23.622 145.669
vt 62.9921 145.669
vt 62.9921 149.606
v -0.6 5.2 -3.8
vt 23.622 149.606
f 31/39/3 29/40/3 30/41/3 32/42/3 

vt -145.669 125.984
vt -145.669 204.724
vt -149.606 204.724
vt -149.606 125.984
f 28/43/2 31/44/2 32/45/2 27/46/2 

g Alfama

v 5.8 3.2 -3.8
v 3.4 3.2 -3.8
vt 133.858 149.606
v 3.4 3.2 -3.7
vt 133.858 145.669
v 5.7 3.2 -3.7
vt 224.409 145.669
v 5.7 3.2 3.7
vt 224.409 -145.669
v 2.3 3.2 3.7
vt 90.5512 -145.669
v 2.3 3.2 -3.7
vt 90.5512 145.669
v 2.4 3.2 -3.7
vt 94.4882 145.669
v 2.4 3.2 -3.8
vt 94.4882 149.606
v 2.2 3.2 -3.8
vt 86.6142 149.606
v 2.2 3.2 3.8
vt 86.6142 -149.606
v 5.8 3.2 3.8
f 33/1/5 34/47/5 35/48/5 36/49/5 37/50/5 38/51/5 39/52/5 40/53/5 41/54/5 42/55/5 43/56/5 44/12/5 

v 3.4 5.2 -3.7
v 3.4 5.2 -3.8
f 35/43/2 45/44/2 46/45/2 34/46/2 

vt -133.858 145.669
v 2.4 5.2 -3.7
vt -94.4882 145.669
v 2.4 5.2 -3.8
vt -94.4882 149.606
vt -133.858 149.606
f 45/57/3 47/58/3 48/59/3 46/60/3 

f 47/35/4 40/36/4 41/37/4 48/38/4 

g Mouraria

v -2.2 0.1 -3.8
vt -86.6142 149.606
vn 4.11023e-20 1 -1.85563e-18
v -2.4 0.1 -3.8
v -2.4 0.1 -3.7
v -2.3 0.1 -3.7
vt -90.5512 145.669
v -2.3 0.1 -2.3
vt -90.5512 90.5512
v -5.7 0.1 -2.3
vt -224.409 90.5512
v -5.7 0.1 -3.7
vt -224.409 145.669
v -3.4 0.1 -3.7
v -3.4 0.1 -3.8
v -5.8 0.1 -3.8
vt -228.346 149.606
v -5.8 0.1 -2.2
vt -228.346 86.6142
v -2.2 0.1 -2.2
vt -86.6142 86.6142
f 49/61/6 50/59/6 51/58/6 52/62/6 53/63/6 54/64/6 55/65/6 56/57/6 57/60/6 58/66/6 59/67/6 60/68/6 

v -2.4 2.1 -3.7
v -2.4 2.1 -3.8
f 51/13/2 61/14/2 62/15/2 50/16/2 

v -3.4 2.1 -3.7
v -3.4 2.1 -3.8
f 61/53/3 63/48/3 64/47/3 62/54/3 

f 63/21/4 56/22/4 57/23/4 64/24/4 

g Chiado

v -5.8 0.1 -1.8
vt -228.346 70.8661
vn -7.52066e-19 1 -1.76494e-19
v -5.8 0.1 -1.6
vt -228.346 62.9921
v -5.7 0.1 -1.6
vt -224.409 62.9921
v -5.7 0.1 -1.7
vt -224.409 66.9291
v -2.3 0.1 -1.7
vt -90.5512 66.9291
v -2.3 0.1 3.7
vt -90.5512 -145.669
v -5.7 0.1 3.7
vt -224.409 -145.669
v -5.7 0.1 -0.6
vt -224.409 23.622
v -5.8 0.1 -0.6
vt -228.346 23.622
v -5.8 0.1 3.8
vt -228.346 -149.606
v -2.2 0.1 3.8
vt -86.6142 -149.606
v -2.2 0.1 -1.8
vt -86.6142 70.8661
f 65/69/7 66/70/7 67/71/7 68/72/7 69/73/7 70/74/7 71/75/7 72/76/7 73/77/7 74/78/7 75/79/7 76/80/7 

vt -224.409 3.93701
vn 0 0 1
v -5.7 2.1 -1.6
vt -224.409 82.6772
v -5.8 2.1 -1.6
vt -228.346 82.6772
vt -228.346 3.93701
f 67/81/8 77/82/8 78/83/8 66/84/8 

vt 224.409 62.9921
v -5.7 2.1 -0.6
vt 224.409 23.622
v -5.8 2.1 -0.6
vt 228.346 23.622
vt 228.346 62.9921
f 77/85/3 79/86/3 80/87/3 78/88/3 

vt 224.409 82.6772
vn 0 9.02389e-17 -1
vt 224.409 3.93701
vt 228.346 3.93701
vt 228.346 82.6772
f 79/89/9 72/90/9 73/91/9 80/92/9 

